<svg version="1.1" id="Layer_1" xmlns="http://www.w3.org/2000/svg" xmlns:xlink="http://www.w3.org/1999/xlink" x="0px" y="0px"
	 width="100%" viewBox="0 0 1024 528" enable-background="new 0 0 1024 528" xml:space="preserve">
<path fill="#000000" opacity="1.000000" stroke="none" 
	d="
M652.575989,252.217651 
	C649.511780,246.714401 649.303467,240.783066 647.921936,235.162994 
	C647.479736,233.364395 648.972595,232.063675 649.988708,230.788879 
	C679.169434,194.179474 708.149536,157.405853 737.757385,121.144928 
	C743.891113,113.632912 753.385010,109.724838 763.243103,109.062721 
	C773.356689,108.383430 783.551514,108.912102 793.630371,108.912102 
	C797.697571,96.883621 803.796448,86.009499 808.601013,74.570374 
	C812.711060,64.784790 817.539795,55.395805 820.238586,44.919472 
	C824.563232,28.131584 838.598083,18.392845 856.076111,17.613129 
	C874.598389,16.786829 892.266846,19.250032 908.282593,29.287922 
	C930.411926,43.157486 936.833435,66.817963 924.627808,90.016533 
	C918.639954,101.397461 910.869690,111.652451 903.569214,122.197838 
	C899.149475,128.581955 901.503296,135.744583 901.699036,142.558456 
	C901.766296,144.899780 905.133057,144.796341 907.142700,145.291077 
	C921.363403,148.791885 935.582153,152.310471 949.860962,155.562195 
	C959.698975,157.802612 966.292664,162.854996 969.840271,172.854996 
	C977.697205,195.002258 983.408386,217.769623 990.309082,240.187576 
	C996.476746,260.224487 1002.126892,280.420349 1008.098511,300.518463 
	C1008.980713,303.487488 1009.031555,306.264221 1008.395264,309.304901 
	C1002.876526,335.678650 997.514526,362.085205 992.027039,388.465576 
	C991.511108,390.945679 991.330200,393.398560 991.330872,395.899078 
	C991.334229,408.897552 991.122742,421.901184 991.444397,434.891663 
	C991.557739,439.470123 989.923523,441.576324 985.651794,442.444427 
	C982.893127,443.005005 980.261475,444.162811 977.533691,444.909973 
	C974.071960,445.858215 970.707520,446.643677 971.061401,451.489594 
	C971.191711,453.273529 969.328491,453.774292 967.854675,454.097626 
	C962.977783,455.167572 958.084229,456.161194 953.198914,457.192780 
	C950.524353,457.757568 949.017029,456.925964 949.058167,453.954041 
	C949.296570,436.743195 946.803772,419.236145 955.377991,403.005920 
	C958.677246,396.760681 957.787964,389.607483 958.385193,382.879822 
	C960.135132,363.165894 960.527954,343.306061 962.927734,323.683807 
	C964.679565,309.359558 961.479065,296.474670 956.910339,283.303314 
	C949.343018,261.487823 942.437134,239.442902 934.339050,217.424606 
	C932.071411,225.840866 929.750122,234.243164 927.548584,242.676682 
	C924.228516,255.395218 921.319031,268.231171 917.632446,280.841095 
	C913.557800,294.778687 913.726807,309.152557 912.490051,323.363708 
	C911.394470,335.953796 910.814697,348.593201 909.447083,361.167877 
	C908.663696,368.371338 908.775146,368.796478 915.747070,370.444122 
	C919.298401,371.283417 919.031555,373.658966 919.035095,376.136871 
	C919.054810,389.968536 919.039978,403.800232 919.039062,417.631927 
	C919.038208,431.463593 919.158325,445.296936 918.966797,459.125946 
	C918.910400,463.200287 920.579407,465.546112 923.514587,468.318359 
	C938.007690,482.006561 956.387268,484.650482 974.829956,487.657532 
	C986.468628,489.555206 985.149963,487.718353 985.204346,499.929993 
	C985.259888,512.394104 985.151062,511.536224 972.820679,512.567200 
	C946.787537,514.743835 922.312805,508.439697 897.925293,500.816925 
	C891.098083,498.682983 884.148743,496.941437 877.263733,494.990509 
	C870.001282,492.932587 863.065063,495.659027 856.069519,496.625488 
	C822.629089,501.245270 789.280090,506.559021 755.794373,510.803314 
	C741.989075,512.553101 727.932922,513.745605 713.963806,511.337219 
	C712.002808,510.999176 709.784241,510.927795 708.185913,509.930206 
	C701.879211,505.993896 695.602234,506.821899 689.108887,509.215546 
	C681.176453,512.139648 672.931335,512.680237 664.528381,512.444519 
	C655.369995,512.187500 646.196777,512.272156 637.034180,512.436340 
	C633.427673,512.500977 631.801880,511.248688 631.923340,507.557465 
	C632.071350,503.062622 632.047119,498.558533 631.964478,494.060883 
	C631.901123,490.612091 633.389771,489.093933 636.877197,488.527405 
	C647.872620,486.741241 658.814026,484.622620 669.775757,482.629608 
	C672.241943,482.181183 674.589539,481.513458 676.763306,480.121918 
	C679.158325,478.588623 680.353577,477.123291 680.255554,473.781189 
	C679.922485,462.433075 686.240540,454.422028 694.762146,447.836456 
	C698.996765,444.563934 703.526001,441.686371 708.450439,439.635742 
	C712.147095,438.096375 712.812988,436.125702 711.745728,432.313568 
	C703.849792,404.109253 696.130859,375.854980 688.470276,347.585510 
	C686.731689,341.169617 685.182922,334.679565 683.990417,328.142731 
	C680.567383,309.379395 693.259644,290.150543 711.090454,288.157227 
	C723.744812,286.742615 735.172913,290.610077 743.965027,300.423706 
	C761.753174,320.278778 779.487366,340.182220 797.252991,360.057587 
	C803.567627,367.122162 809.908630,374.163208 816.712280,381.743927 
	C819.588562,376.209564 819.462830,370.670319 820.518433,365.484039 
	C821.908875,358.652496 822.391663,351.632294 823.863831,344.822784 
	C824.786438,340.555450 824.340027,336.613403 823.388367,332.538544 
	C814.989746,296.578796 806.611267,260.614319 798.233704,224.649658 
	C796.338196,216.512054 796.337280,216.472580 788.683594,219.209335 
	C751.213501,232.607803 713.698364,245.883987 676.339355,259.585724 
	C670.354065,261.780884 665.644836,261.816437 660.770691,257.692169 
	C658.376221,255.666092 655.517090,254.189087 652.575989,252.217651 
M955.375488,249.217789 
	C961.639526,267.131531 967.898499,285.047058 974.175720,302.956177 
	C974.785583,304.696259 975.246338,306.388763 975.058411,308.304047 
	C972.719482,332.137970 970.492065,355.982910 968.122620,379.813751 
	C967.155640,389.540131 967.360291,399.533936 962.853821,408.586243 
	C958.792603,416.744141 957.673096,425.346741 958.332703,434.296112 
	C958.642761,438.504028 957.555481,442.818909 958.966370,446.982666 
	C963.236755,446.138123 963.469421,446.146545 963.600891,442.511566 
	C963.696411,439.871490 964.823975,438.560913 967.173706,437.860657 
	C969.087158,437.290405 970.919983,436.273682 972.863403,436.013275 
	C978.976807,435.194061 980.272156,431.664093 980.212280,425.927948 
	C980.095886,414.786407 978.773132,403.502106 980.837158,392.498993 
	C985.742249,366.349213 991.218811,340.306641 996.466858,314.221191 
	C997.775696,307.715698 998.611938,301.507050 996.480713,294.686920 
	C988.637207,269.586609 981.620300,244.229355 974.017273,219.051865 
	C969.930664,205.518951 966.491516,191.793961 961.338196,178.564224 
	C958.172852,170.437927 952.864319,166.018555 944.449463,164.123169 
	C928.219238,160.467422 912.126282,156.205826 895.937683,152.358414 
	C892.245667,151.480972 890.557861,149.767273 890.794922,145.832230 
	C891.065063,141.348923 890.656860,136.825378 890.912415,132.340347 
	C891.114563,128.793365 889.781921,126.441750 887.040466,124.291664 
	C881.273987,119.769066 875.816650,114.853127 870.065796,110.309494 
	C867.445496,108.239174 866.934937,106.466591 869.039062,103.674469 
	C872.746826,98.754166 876.197876,93.639168 879.713501,88.575882 
	C881.538025,85.948280 883.050476,83.198990 882.769165,79.802650 
	C882.429688,75.704773 880.446777,74.212013 876.411438,75.065659 
	C874.566956,75.455856 872.764160,76.155914 871.576355,77.523407 
	C868.714783,80.817749 866.004456,79.841774 862.820129,78.000069 
	C851.860168,71.661232 840.798035,65.499039 829.761353,59.293465 
	C828.645142,58.665878 827.606201,57.629425 825.657532,58.343945 
	C819.686035,71.967468 813.591492,85.871613 806.975952,100.964485 
	C815.576660,99.126480 817.349426,104.100288 819.014099,109.508438 
	C820.432373,114.116135 822.578125,118.508667 823.865601,123.145340 
	C825.073853,127.496880 827.205200,128.125626 831.162048,126.610939 
	C836.517273,124.560936 841.847168,122.213173 848.163025,121.570633 
	C850.632751,131.092026 853.003906,140.243149 855.381531,149.392563 
	C855.981079,151.699661 854.973999,152.797409 852.740723,153.213531 
	C849.306519,153.853439 845.878540,154.546753 842.478455,155.347092 
	C827.447998,158.885162 811.989319,160.686371 797.704590,167.215424 
	C790.168396,170.659988 784.299622,176.561096 777.309814,180.471756 
	C754.346741,193.319122 730.811646,205.141571 707.571899,217.499817 
	C704.002686,219.397827 702.459717,217.917786 700.971802,214.995346 
	C699.569702,212.241745 701.459778,210.583557 702.813599,208.775314 
	C718.390259,187.970505 734.043396,167.222626 749.537781,146.356873 
	C751.744507,143.385086 754.333984,142.141342 757.895752,141.813049 
	C766.673645,141.004013 775.438843,140.020157 784.185059,138.915405 
	C791.474548,137.994659 793.663208,135.873260 795.392578,128.773376 
	C796.593872,123.841537 792.655884,118.844505 787.665100,118.881653 
	C780.999146,118.931290 774.329102,119.056183 767.667297,118.888222 
	C758.213684,118.649872 750.728271,122.936958 745.228455,129.899445 
	C718.274536,164.022247 690.486938,197.459961 662.859192,231.030258 
	C660.012634,234.489120 659.087280,241.861938 661.156921,244.519547 
	C663.796875,247.909592 672.069702,250.539612 675.860291,249.167282 
	C716.887939,234.313965 757.925964,219.489243 798.917786,204.537781 
	C802.437500,203.253983 804.300964,203.220825 805.274719,207.503464 
	C814.970276,250.146393 824.803711,292.757996 834.643005,335.368073 
	C835.022827,337.012970 835.410095,338.590271 835.105774,340.280396 
	C833.573242,348.790833 832.006348,357.295563 830.549011,365.818970 
	C829.419495,372.424988 828.433289,379.055542 827.353516,385.863586 
	C828.609985,385.801666 829.118835,385.847534 829.594666,385.742981 
	C851.370422,380.958130 873.134155,376.118134 894.925659,371.406250 
	C898.441040,370.646088 899.355713,368.332733 899.578918,365.308838 
	C900.962769,346.561707 902.282227,327.809692 903.734680,309.067932 
	C904.312744,301.608734 904.287048,293.951202 906.069397,286.764191 
	C912.435730,261.092743 919.473694,235.588058 926.216553,210.009491 
	C927.020569,206.959473 927.746765,204.283478 931.925781,204.608459 
	C936.023499,204.927094 939.900085,204.026291 941.693176,209.783447 
	C945.750366,222.809402 950.621399,235.581848 955.375488,249.217789 
M788.927734,412.500122 
	C764.365723,423.868225 739.803711,435.236328 714.294800,447.042694 
	C721.065735,455.411926 727.166443,463.016907 733.354431,470.550201 
	C734.677124,472.160431 736.720459,471.781494 738.525452,471.693268 
	C752.485535,471.010651 766.447083,470.349731 780.401611,469.565308 
	C808.800964,467.968903 837.197449,466.322021 865.592407,464.649323 
	C878.544373,463.886353 891.487610,462.974945 904.439758,462.215179 
	C907.743652,462.021362 909.077759,460.569031 909.068970,457.202606 
	C909.005615,432.889099 909.031494,408.575165 909.106995,384.261627 
	C909.119141,380.343384 907.958862,378.953522 903.720947,379.883453 
	C886.184143,383.731506 868.570068,387.225739 851.005432,390.949585 
	C840.933777,393.084839 830.581848,394.499573 820.938843,397.894226 
	C810.157654,401.689575 800.035889,407.358307 788.927734,412.500122 
M789.881470,496.189789 
	C812.956299,493.070557 836.014709,489.822174 859.113831,486.894592 
	C868.590271,485.693542 877.960327,483.329163 887.733215,486.610962 
	C899.708557,490.632446 912.264648,492.960907 924.157227,497.183197 
	C939.374084,502.585754 954.927795,501.954376 970.551514,501.826294 
	C972.429138,501.810883 974.389160,501.714874 974.494263,499.111450 
	C974.599854,496.492828 972.606628,496.350098 970.768005,496.084595 
	C966.655762,495.490814 962.552917,494.518768 958.425903,494.398590 
	C945.328369,494.017120 933.733765,490.106018 923.915833,481.175232 
	C921.348389,478.839874 918.146057,477.218231 915.394043,475.065857 
	C912.485596,472.791107 909.395142,471.916870 905.665649,472.134308 
	C890.874817,472.996674 876.068726,473.592987 861.271973,474.358521 
	C841.821838,475.364807 822.374146,476.419861 802.927185,477.486481 
	C779.993408,478.744324 757.058533,479.986847 734.131775,481.363403 
	C730.274780,481.595032 727.626526,480.411957 725.189453,477.321991 
	C719.208069,469.738037 712.848755,462.452759 706.674622,455.019684 
	C705.318054,453.386414 704.151001,452.017487 701.737427,453.582367 
	C696.666931,456.869965 692.765930,460.939514 691.314697,467.022003 
	C688.042969,480.735260 695.911133,494.460693 709.716248,498.705048 
	C717.904602,501.222565 726.373413,502.227539 734.892944,501.560028 
	C752.962830,500.144257 771.109436,499.463470 789.881470,496.189789 
M776.233826,350.259552 
	C762.920349,335.693176 749.606873,321.126801 735.640137,305.845673 
	C732.155640,313.728210 729.165527,320.725464 725.960327,327.622772 
	C724.758179,330.209625 724.641296,332.539246 725.556335,335.253265 
	C733.204407,357.936798 740.698181,380.672363 748.347595,403.355438 
	C749.909180,407.986145 750.733215,412.953247 753.727905,417.544434 
	C773.428955,408.663025 792.773499,399.942322 812.887329,390.874817 
	C800.475220,377.122406 788.590088,363.953796 776.233826,350.259552 
M919.750427,62.759167 
	C919.646851,53.165352 914.412598,46.483624 907.046570,41.312119 
	C891.066406,30.092928 873.077454,26.215727 853.957458,28.681208 
	C844.537231,29.895926 836.123474,33.983746 831.210510,43.101124 
	C829.393494,46.473236 829.377197,48.470219 833.258240,50.510662 
	C842.826538,55.541195 852.178894,60.992538 861.509583,66.459816 
	C864.793640,68.384094 867.501465,68.863983 871.142822,66.835594 
	C877.785217,63.135410 884.074768,64.167732 888.562744,68.804283 
	C893.515930,73.921333 894.441345,80.463898 891.018982,87.194565 
	C888.369019,92.406075 885.061523,97.191360 881.213562,101.602592 
	C880.159912,102.810539 878.397278,104.142906 880.229919,105.795708 
	C884.755432,109.877190 888.943054,114.391434 894.472168,117.957855 
	C901.737305,108.408882 908.077209,98.700645 913.709656,88.532959 
	C917.981323,80.821785 920.363770,72.598190 919.750427,62.759167 
M696.466431,336.111298 
	C705.106384,368.100830 713.746399,400.090363 722.509155,432.534637 
	C728.079773,429.805847 732.580872,427.224945 737.362488,425.364838 
	C742.088257,423.526459 742.949890,421.196381 741.273438,416.305939 
	C732.476074,390.642548 724.177246,364.808624 715.448669,339.121094 
	C713.720581,334.035309 713.690674,329.648773 716.225952,324.829651 
	C719.632507,318.354584 722.353455,311.522400 725.538269,304.925354 
	C726.822144,302.265930 726.575928,300.671875 723.616333,299.556732 
	C712.451294,295.349854 700.929810,300.300171 696.387390,311.364716 
	C693.115906,319.333282 693.838196,327.314331 696.466431,336.111298 
M726.125366,198.499329 
	C743.180054,188.424744 760.937439,179.519897 777.354492,168.399246 
	C786.127319,162.456665 795.300476,157.673782 805.415527,154.522461 
	C816.712402,151.002914 828.320374,148.754852 839.727966,145.702438 
	C841.621643,145.195724 844.046204,144.972183 843.306885,142.043243 
	C842.627502,139.351593 842.651428,136.412933 840.711548,133.834885 
	C835.269287,134.610245 830.367065,137.172821 825.237976,138.969971 
	C822.292114,140.002182 820.694885,139.477951 819.582092,136.347794 
	C817.074463,129.294083 814.194153,122.373756 811.536011,115.372406 
	C809.019775,108.744888 808.189697,108.254723 800.883423,109.654488 
	C802.528992,114.550468 804.185425,119.425941 805.804932,124.313660 
	C807.121582,128.287079 801.082825,144.617065 797.447815,146.635330 
	C796.486816,147.168945 795.218262,147.190430 794.077393,147.351471 
	C787.491760,148.281174 780.903687,149.915985 774.313477,149.930099 
	C762.916687,149.954498 755.587952,155.027939 749.176514,164.322464 
	C740.373596,177.083878 729.962158,188.735703 720.239929,200.862976 
	C720.411621,201.040497 720.583313,201.218018 720.755005,201.395538 
	C722.337952,200.541351 723.920898,199.687149 726.125366,198.499329 
M642.943115,497.490448 
	C641.902100,500.840424 643.282288,501.977783 646.607300,501.932373 
	C655.728577,501.807770 664.856018,502.012390 673.973633,501.789185 
	C678.932068,501.667786 683.618225,500.027832 688.232056,498.215057 
	C684.663513,489.660278 684.645447,489.668732 677.117676,491.889679 
	C676.019958,492.213562 674.821899,492.183044 673.679321,492.371338 
	C663.579529,494.035553 653.247681,494.155792 642.943115,497.490448 
z"/>
<path fill="#000000" opacity="1.000000" stroke="none" 
	d="
M531.240601,274.818726 
	C538.862244,288.532562 546.415039,301.867767 553.747314,315.323212 
	C558.878418,324.739319 564.618652,333.637482 572.492004,341.052856 
	C575.029358,343.442627 577.341675,346.113312 579.493774,348.861572 
	C584.129517,354.781525 586.953674,361.189789 583.345886,368.711517 
	C579.742737,376.223541 573.049500,378.807709 565.364502,379.243347 
	C555.836609,379.783478 546.456482,377.954834 537.048340,376.815094 
	C534.645325,376.523987 532.432922,376.484619 530.236572,377.503204 
	C502.911713,390.175171 474.722565,389.336365 446.171143,382.888428 
	C443.921600,382.380432 441.652313,381.959747 438.631226,381.343201 
	C439.741730,387.764862 442.108185,393.208038 444.128418,398.697540 
	C451.970032,420.005066 451.956696,419.951782 444.618011,441.395752 
	C440.144928,454.466278 435.961365,467.636047 431.679474,480.771576 
	C431.278961,482.000183 431.106873,483.303223 430.694336,485.184448 
	C437.372009,486.006104 443.737457,486.768219 450.096283,487.582306 
	C452.569031,487.898865 455.015533,488.444061 457.493286,488.693604 
	C467.667725,489.718597 473.894409,495.233246 476.455139,505.067841 
	C476.999146,507.157166 477.995087,509.154022 478.331451,511.265411 
	C478.702423,513.594055 481.081451,516.544739 477.257935,518.124756 
	C472.498627,520.091431 469.664215,519.162292 467.782745,514.746521 
	C466.468353,511.661774 464.053558,512.418030 461.884613,512.415344 
	C426.890533,512.371887 391.896393,512.386353 356.902252,512.387451 
	C347.403839,512.387756 337.905334,512.408569 328.407074,512.373169 
	C325.956085,512.364014 323.698944,512.405090 323.029541,515.496826 
	C321.888062,520.768982 317.958008,518.252502 314.966522,518.281677 
	C311.296997,518.317444 312.071106,515.444580 311.872894,513.337158 
	C310.213623,511.862976 308.292877,512.420593 306.535645,512.413818 
	C293.538055,512.364014 280.539886,512.435547 267.542511,512.361633 
	C264.330048,512.343384 262.036163,512.598633 260.804596,516.492432 
	C259.273895,521.332031 255.053207,518.161621 252.165436,517.994507 
	C249.226624,517.824463 250.271454,515.118286 250.587646,513.214172 
	C252.866119,499.492493 259.776184,490.087616 273.992340,486.613647 
	C287.288666,483.364441 300.898712,482.219910 314.293671,479.709137 
	C317.391449,479.128479 320.474335,478.408295 323.506592,477.549438 
	C332.156433,475.099487 338.307037,470.532837 341.020935,461.098816 
	C344.650665,448.481445 349.572968,436.234009 354.008575,423.852234 
	C354.769928,421.726837 354.967865,419.627533 354.501068,417.474640 
	C347.699524,386.106873 340.851471,354.749176 334.097778,323.371124 
	C333.329926,319.803894 331.292053,317.011597 329.403809,314.087219 
	C310.246033,284.417419 291.315186,254.630005 274.599457,223.460815 
	C267.227631,209.714859 264.887390,194.972610 262.674805,179.965622 
	C259.789551,160.395920 256.248840,140.921112 253.488846,121.335220 
	C251.274689,105.622482 241.403549,96.326042 228.430649,89.269173 
	C223.296997,86.476624 217.975266,84.020348 212.231461,82.836510 
	C207.550766,81.871788 207.164215,79.537193 208.981232,75.674576 
	C212.377640,68.454552 217.313583,62.545250 224.744675,59.668896 
	C236.422409,55.148777 244.988998,48.001492 252.103699,37.288761 
	C260.603119,24.491049 274.653564,19.462194 289.880341,17.605965 
	C313.398254,14.739001 330.901428,25.893522 346.864746,41.001751 
	C359.754303,53.200878 370.421051,67.308311 380.808594,81.590431 
	C391.557556,96.369522 405.458527,108.218239 417.407379,121.874092 
	C427.624420,133.550674 437.892487,145.143463 444.488434,159.410324 
	C445.047119,160.618713 445.914337,161.834732 445.996460,163.089203 
	C446.597748,172.279587 452.716370,177.259720 459.246826,182.746170 
	C486.672577,205.787292 509.873810,232.397598 525.709229,264.899475 
	C527.311401,268.188049 529.279358,271.298401 531.240601,274.818726 
M326.285400,289.258240 
	C336.872314,305.216583 345.918365,322.210236 357.988678,337.167603 
	C379.555603,363.893066 402.941559,389.035187 425.903442,414.541229 
	C428.809906,417.769714 429.578918,420.548035 428.003723,424.783966 
	C419.879242,446.631836 412.024597,468.580933 404.225037,490.547699 
	C403.031708,493.908600 401.208679,495.226654 397.651367,495.198853 
	C378.320068,495.047760 359.029480,495.777252 339.827271,498.253784 
	C336.556091,498.675659 333.485535,499.333069 330.212555,501.202484 
	C339.025055,502.192719 455.994934,501.872986 460.121185,500.878693 
	C456.762726,499.546204 453.503235,498.526764 449.949554,498.204407 
	C440.834778,497.377563 431.751678,496.207428 422.642609,495.309357 
	C419.762604,495.025421 418.593170,493.778259 418.580200,490.852814 
	C418.560822,486.488800 418.928772,482.277405 420.377777,478.092499 
	C426.315918,460.942566 432.013916,443.709137 438.006042,426.578400 
	C439.454346,422.437866 439.528198,418.756897 438.056122,414.538940 
	C432.899658,399.764435 428.144623,384.849884 423.240204,369.987488 
	C422.828186,368.738922 422.209473,367.480865 423.592560,365.822296 
	C425.102203,366.237885 426.824646,366.699677 428.540039,367.186279 
	C444.425873,371.692596 460.552643,375.127869 477.001740,376.515656 
	C494.520538,377.993683 510.947968,372.975922 527.056091,366.760315 
	C529.535278,365.803650 531.886658,364.640533 534.737610,365.133911 
	C539.818237,366.013153 544.920410,367.063171 550.047913,367.301178 
	C556.155396,367.584656 562.207336,369.615967 568.399048,367.979797 
	C574.781616,366.293213 576.200562,362.856476 572.436462,357.388397 
	C569.023926,352.431061 564.801147,348.145966 560.522400,343.933533 
	C556.711304,340.181549 553.189209,336.211365 550.419678,331.593384 
	C539.276917,313.013824 528.584229,294.150635 519.000183,274.749115 
	C504.380066,245.152832 484.158203,220.063522 460.052307,197.863800 
	C456.943573,195.000885 453.913300,191.911850 449.513123,189.893036 
	C447.787231,205.514999 443.293488,219.548782 430.308929,228.856918 
	C417.297058,238.184662 402.160492,237.024109 386.171417,235.206924 
	C390.382141,242.101364 393.899445,247.897491 397.453583,253.670959 
	C402.498444,261.866089 402.458466,270.364014 399.005005,279.065033 
	C397.156891,283.721313 393.808350,286.639618 388.929565,287.945282 
	C381.642853,289.895447 374.657837,288.948700 368.084320,285.573792 
	C346.913025,274.704193 330.984436,258.175812 318.068848,238.519836 
	C308.836212,224.468811 302.980896,209.213806 302.750305,192.201202 
	C302.514404,174.795166 310.497650,164.187790 327.219849,159.783920 
	C345.773712,154.897690 364.714996,154.505859 383.753479,155.327240 
	C387.853638,155.504135 389.197540,157.163956 389.161499,161.168060 
	C389.120728,165.694077 386.667816,166.261200 383.034363,166.220810 
	C375.203522,166.133774 367.354675,165.975464 359.541718,166.387238 
	C348.744049,166.956360 337.910400,167.605225 327.583191,171.368912 
	C318.560699,174.657120 313.545471,181.484772 313.332092,191.023087 
	C313.124146,200.318863 315.008759,209.264679 318.652008,217.752914 
	C326.975952,237.146439 339.938324,253.056610 356.218475,266.292297 
	C362.816284,271.656342 369.724426,276.653503 378.451843,278.170288 
	C384.369232,279.198730 387.834106,276.853485 389.834808,271.237793 
	C391.790009,265.749725 389.437622,261.474609 386.815247,257.186371 
	C379.682983,245.523270 371.952271,234.262390 363.805054,223.283554 
	C362.795776,221.923431 361.016144,220.817474 361.587921,218.571579 
	C363.515686,218.134552 365.204559,218.926468 366.960114,219.296921 
	C377.211273,221.460159 387.289551,224.675232 397.790649,225.365005 
	C419.321533,226.779282 433.049438,218.525299 437.596710,197.036423 
	C440.327332,184.132355 438.280487,171.486374 432.153992,159.721695 
	C424.365692,144.765808 413.022614,132.542282 401.550537,120.416893 
	C391.832886,110.145874 380.998596,100.935593 372.688507,89.316956 
	C367.362213,81.870117 361.634613,74.693848 355.814484,67.620399 
	C346.259247,56.007442 335.814484,45.354275 323.189392,36.907425 
	C300.280731,21.580345 272.862610,27.311861 256.510437,50.336430 
	C254.730865,52.842163 254.554672,54.915791 255.819031,57.651588 
	C258.333527,63.092327 260.570984,68.686737 261.878448,74.549500 
	C262.497620,77.325836 264.082184,80.165497 262.643005,83.326927 
	C258.060364,83.746758 254.001663,81.867363 249.753311,81.441116 
	C245.646240,81.029037 241.598831,79.773636 236.851746,80.291870 
	C251.675156,88.800842 261.261353,100.522972 263.940094,117.228577 
	C267.072235,136.761871 270.155579,156.303131 273.348114,175.826553 
	C275.460114,188.741867 276.445557,201.808731 282.456604,213.946533 
	C295.277924,239.835922 310.475891,264.296722 326.285400,289.258240 
M415.729523,429.329346 
	C418.254089,424.814331 417.553741,421.306335 413.595703,417.557281 
	C407.563995,411.844055 402.213409,405.409851 396.599182,399.258423 
	C393.506409,395.869720 390.466003,392.433228 387.401978,389.018311 
	C387.548065,396.293793 388.737946,403.071289 389.828094,409.864807 
	C390.402924,413.446655 391.011658,416.896332 389.443848,420.600159 
	C381.072906,440.375671 372.933685,460.249359 364.758362,480.107208 
	C364.295685,481.230988 363.256165,482.380432 364.167419,483.764526 
	C373.032928,483.764526 381.852112,483.572296 390.656586,483.848389 
	C394.839600,483.979584 396.860596,482.512299 398.230682,478.525085 
	C403.801941,462.311707 409.707245,446.213104 415.729523,429.329346 
M352.380341,480.960999 
	C360.784790,461.016418 369.160553,441.059692 377.620941,421.138885 
	C379.087830,417.684967 379.758362,414.398346 378.999023,410.537659 
	C377.074768,400.753998 375.632568,390.875427 374.006256,381.033356 
	C373.440491,377.609467 373.872742,373.696136 371.697113,370.948364 
	C365.051178,362.554718 358.004883,354.478088 350.629669,345.701233 
	C350.535858,347.164032 350.390747,347.673889 350.490082,348.130554 
	C354.200378,365.183502 357.464111,382.352234 361.808136,399.242950 
	C365.429657,413.324402 366.622131,426.890594 359.730316,440.278259 
	C358.979736,441.736328 358.720856,443.442810 358.188782,445.018829 
	C356.006683,451.482239 353.412964,457.836792 351.693726,464.420227 
	C347.761810,479.476807 336.704041,485.433044 322.787994,488.333435 
	C308.466583,491.318298 293.752594,492.188141 279.664246,496.350769 
	C275.898956,497.463348 271.900909,498.290985 268.271973,501.659790 
	C283.455414,501.659790 297.775848,501.636353 312.095978,501.684662 
	C314.279236,501.692047 316.054352,501.217133 317.047516,499.113617 
	C320.257141,492.315704 326.355011,489.987000 333.129364,488.725494 
	C337.379364,487.934082 341.622711,487.077362 345.900879,486.476593 
	C348.989227,486.042877 351.299713,484.915741 352.380341,480.960999 
M232.784470,66.257858 
	C230.628189,67.516472 227.999939,68.089363 225.686874,70.897583 
	C235.078613,71.404968 243.549362,71.862602 252.164612,72.328049 
	C249.565201,60.385506 248.403137,59.746700 238.080444,64.092003 
	C236.551819,64.735466 235.012543,65.353630 232.784470,66.257858 
z"/>
<path fill="#000000" opacity="1.000000" stroke="none" 
	d="
M37.384407,416.500397 
	C29.217056,391.086456 21.229866,366.029724 13.111295,341.015625 
	C12.209004,338.235596 12.660835,336.452148 14.810826,334.458099 
	C25.662609,324.393372 25.607824,324.347351 38.533009,331.827515 
	C44.824814,335.468750 51.137695,339.073547 57.436066,342.691956 
	C57.436066,335.239075 57.821255,328.341309 57.363899,321.499908 
	C55.988174,300.921051 54.251144,280.366638 52.717625,259.798004 
	C51.221478,239.730591 49.840397,219.654602 48.338554,199.587631 
	C46.910954,180.512604 45.325455,161.449280 43.931870,142.371857 
	C42.380600,121.135849 41.028656,99.885269 39.476303,78.649330 
	C38.094097,59.741001 36.623199,40.838451 35.042309,21.945831 
	C34.633026,17.054678 37.602943,16.989346 41.010174,16.990446 
	C67.668221,16.999056 94.326263,16.981901 120.984314,16.976057 
	C124.483131,16.975288 127.984627,17.082827 131.480026,16.978212 
	C135.064392,16.870935 136.618637,18.287851 136.336884,22.030239 
	C135.162704,37.625553 134.163940,53.233974 133.029800,68.832428 
	C131.823593,85.421814 130.531387,102.004929 129.287170,118.591568 
	C127.694702,139.820831 126.090225,161.049210 124.532669,182.281036 
	C123.072220,202.189087 121.676567,222.101852 120.233353,242.011185 
	C118.693962,263.247131 117.130905,284.481415 115.580872,305.716583 
	C114.818108,316.166290 114.026543,326.614166 113.339272,337.068848 
	C113.235161,338.652557 112.716248,340.380585 114.063461,342.153717 
	C118.374825,341.032593 121.944099,338.242096 125.831833,336.172699 
	C131.122742,333.356354 136.261871,330.255402 141.477341,327.296295 
	C142.488831,326.722443 143.498932,326.027679 144.600586,325.751984 
	C149.000992,324.650909 160.413147,336.671967 159.029266,340.955414 
	C153.349625,358.535461 147.601685,376.093414 141.910202,393.669647 
	C130.222580,429.762909 118.501053,465.845398 106.913414,501.970764 
	C103.587563,512.339417 103.775841,512.399902 92.675941,512.395447 
	C86.011429,512.392822 79.341103,512.222778 72.684715,512.453857 
	C69.067879,512.579407 67.468422,511.257202 66.375374,507.767151 
	C56.874695,477.431885 47.170021,447.160492 37.384407,416.500397 
M67.937126,315.842529 
	C68.653877,325.464813 69.578110,335.078369 69.985229,344.713715 
	C70.147964,348.565033 71.670952,350.606628 74.902565,352.479553 
	C86.296089,359.082886 86.155312,359.097412 97.305191,352.106842 
	C100.550644,350.072052 101.684059,347.603821 101.766266,343.920197 
	C101.899658,337.943237 102.501358,331.975403 102.951004,326.007141 
	C104.512321,305.283447 106.139755,284.564575 107.651825,263.837311 
	C108.825645,247.746918 109.790955,231.641235 110.982544,215.552231 
	C112.468285,195.491486 114.152641,175.445450 115.635597,155.384506 
	C116.836929,139.133270 117.788841,122.863609 118.991760,106.612518 
	C120.807884,82.077095 122.719536,57.548599 124.663467,33.022938 
	C124.932732,29.625696 123.859764,28.243227 120.261696,28.260590 
	C97.443893,28.370693 74.625046,28.367090 51.807171,28.263227 
	C48.009922,28.245943 46.882145,29.720093 47.160805,33.364166 
	C48.390255,49.442078 49.399136,65.536720 50.587990,81.617905 
	C52.083618,101.848801 53.730137,122.068581 55.212936,142.300385 
	C56.707878,162.697906 58.044746,183.106995 59.519382,203.506042 
	C61.065868,224.899078 62.698715,246.285873 64.284378,267.676086 
	C65.452011,283.427063 66.604446,299.179138 67.937126,315.842529 
M69.996826,484.639862 
	C70.995903,487.638702 72.005219,490.634155 72.992165,493.636963 
	C76.080315,503.032837 74.409637,501.584351 84.273598,501.654968 
	C95.540627,501.735626 95.527725,501.668304 99.112656,490.618286 
	C114.777840,442.332520 130.461639,394.052795 146.086639,345.754059 
	C146.747604,343.710968 148.480301,341.467194 145.870255,339.416046 
	C143.323975,337.414948 141.427536,339.459229 139.546112,340.520844 
	C123.011505,349.850769 106.482063,359.192505 90.076706,368.746429 
	C87.052261,370.507751 84.833809,370.414001 81.869850,368.697845 
	C65.152069,359.017975 48.314610,349.544830 31.521013,339.995850 
	C29.604685,338.906189 27.750898,337.759064 25.613489,339.635345 
	C23.637890,341.369598 24.567205,343.223694 25.178780,345.123444 
	C28.339024,354.940460 31.479637,364.763763 34.632362,374.583221 
	C46.330681,411.018524 58.031078,447.453156 69.996826,484.639862 
z"/>
<path fill="#000000" opacity="1.000000" stroke="none" 
	d="
M841.616089,84.834030 
	C832.890991,85.548874 825.381226,83.106430 821.176025,78.403030 
	C829.250916,69.156654 845.491516,73.036758 848.963196,83.137787 
	C847.065125,85.224007 844.270081,83.933830 841.616089,84.834030 
z"/>
<path fill="#000000" opacity="1.000000" stroke="none" 
	d="
M280.117615,50.646099 
	C289.076569,48.551636 296.731323,50.241631 303.036865,56.483456 
	C306.788513,60.197201 306.610168,63.063206 302.976959,66.801086 
	C294.213074,75.817467 277.062286,75.202927 268.899109,65.685158 
	C266.494446,62.881466 266.523865,60.440868 269.021698,57.813057 
	C272.050873,54.626236 275.492981,52.104836 280.117615,50.646099 
M291.257935,64.036079 
	C292.776733,63.556717 294.613464,63.570942 295.162567,61.563927 
	C290.659851,57.948177 281.284943,58.202755 277.847961,62.181973 
	C281.707520,65.323959 286.077454,64.930229 291.257935,64.036079 
z"/>
</svg>