<svg width="48" height="48" viewBox="0 0 48 48" fill="none" role="img" xmlns="http://www.w3.org/2000/svg">
  <g clip-path="url(#a)">
    <rect x="8" y="8" width="32" height="32" rx="16" fill="#fff"/>
    <path fill-rule="evenodd" clip-rule="evenodd" d="M32.58 16.835a1 1 0 0 0-1.415-1.415l-1.037 1.038a1 1 0 1 0 1.415 1.414l1.037-1.037ZM17.872 31.542a1 1 0 1 0-1.415-1.414l-1.037 1.037a1 1 0 0 0 1.415 1.415l1.037-1.037ZM23 35.133a1 1 0 1 0 2 0v-1.466a1 1 0 1 0-2 0v1.466Zm0-20.8a1 1 0 1 0 2 0v-1.466a1 1 0 1 0-2 0v1.466ZM36.133 24a1 1 0 0 1-1 1h-1.466a1 1 0 1 1 0-2h1.466a1 1 0 0 1 1 1Zm-20.8 0a1 1 0 0 1-1 1h-1.466a1 1 0 1 1 0-2h1.466a1 1 0 0 1 1 1Zm15.832 8.58a1 1 0 0 0 1.415-1.415l-1.037-1.037a1 1 0 1 0-1.415 1.415l1.037 1.037ZM16.458 17.872a1 1 0 1 0 1.414-1.414l-1.037-1.037a1 1 0 0 0-1.415 1.414l1.037 1.037Z" fill="#1B1B1B"/>
    <circle cx="24" cy="24" r="5" fill="#1B1B1B"/>
    <circle cx="47" cy="5" r="12" fill="#fff"/>
  </g>
  <defs>
    <clipPath id="a">
      <rect x="8" y="8" width="32" height="32" rx="16" fill="#fff"/>
    </clipPath>
  </defs>
</svg>